<svg width="41" height="37" viewBox="0 0 41 37" fill="none" xmlns="http://www.w3.org/2000/svg">
<path d="M18.501 26.5392C18.501 25.7112 19.173 25.0272 20.001 25.0272C20.829 25.0272 21.501 25.6892 21.501 26.5172V26.5392C21.501 27.3672 20.829 28.0392 20.001 28.0392C19.173 28.0392 18.501 27.3672 18.501 26.5392Z" fill="#252525"/>
<path d="M5.59168 34.8358H34.5557C36.8497 34.7158 38.6137 32.7618 38.4957 30.4678C38.4697 30.0038 38.3697 29.5458 38.1937 29.1178L23.6397 3.6458C22.5277 1.6358 19.9977 0.907801 17.9877 2.0218C17.3037 2.3978 16.7397 2.9618 16.3617 3.6458L1.80768 29.1178C0.94368 31.2458 1.96768 33.6698 4.09368 34.5358C4.52568 34.7098 4.98168 34.8098 5.44568 34.8358" stroke="#252525" stroke-width="3" stroke-linecap="round" stroke-linejoin="round"/>
<path d="M19.9805 20.7922V14.5922" stroke="#252525" stroke-width="3" stroke-linecap="round" stroke-linejoin="round"/>
</svg>
