<svg width="48" height="26" viewBox="0 0 48 26" fill="none" xmlns="http://www.w3.org/2000/svg">
<g clip-path="url(#clip0)">
<path d="M13.1765 0.5H34.8235C41.8309 0.5 47.5 6.10278 47.5 13C47.5 19.8972 41.8309 25.5 34.8235 25.5H13.1765C6.16907 25.5 0.5 19.8972 0.5 13C0.5 6.10278 6.16907 0.5 13.1765 0.5Z" fill="white" stroke="#6E7E91"/>
<path d="M34.8236 0.464233H13.1766C6.15932 0.464233 0.470703 6.07666 0.470703 12.9999C0.470703 19.9232 6.15932 25.5357 13.1766 25.5357H34.8236C41.8409 25.5357 47.5295 19.9232 47.5295 12.9999C47.5295 6.07666 41.8409 0.464233 34.8236 0.464233Z" fill="#E5E5E5" stroke="#D1D5DA" stroke-opacity="0.3"/>
<path d="M13 23C18.5228 23 23 18.5228 23 13C23 7.47715 18.5228 3 13 3C7.47715 3 3 7.47715 3 13C3 18.5228 7.47715 23 13 23Z" fill="#6E7E91"/>
<g clip-path="url(#clip1)">
<path d="M12.9999 8.7179C10.635 8.7179 8.71777 10.6351 8.71777 13C8.71777 15.365 10.635 17.2821 12.9999 17.2821C15.3648 17.2821 17.282 15.365 17.282 13C17.282 10.6351 15.3648 8.7179 12.9999 8.7179ZM12.9999 16.5V9.50002C14.6617 9.4956 16.0949 10.6667 16.4217 12.2961C16.526 12.7596 16.526 13.2404 16.4217 13.7039C16.0949 15.3334 14.6617 16.5045 12.9999 16.5Z" fill="white"/>
<path d="M16.4412 9.55866C16.5134 9.63235 16.6118 9.67449 16.7149 9.67599C16.8181 9.67453 16.9165 9.63235 16.9887 9.55866L17.9468 8.60056C18.1196 8.47095 18.1546 8.22585 18.025 8.05306C17.8954 7.88026 17.6503 7.84527 17.4775 7.97484C17.4478 7.99707 17.4215 8.02341 17.3993 8.05306L16.4412 9.01116C16.29 9.14986 16.2799 9.38489 16.4186 9.53605C16.4258 9.54391 16.4333 9.55144 16.4412 9.55866Z" fill="white"/>
<path d="M9.48036 16.4415C9.34132 16.3372 9.15011 16.3372 9.01107 16.4415L8.05297 17.3996C7.90177 17.5383 7.89167 17.7733 8.03041 17.9245C8.03759 17.9323 8.04515 17.9399 8.05297 17.9471C8.19167 18.0983 8.42671 18.1084 8.57787 17.9696C8.58573 17.9624 8.59325 17.9549 8.60044 17.9471L9.55854 16.9889C9.68815 16.8162 9.65315 16.5711 9.48036 16.4415Z" fill="white"/>
<path d="M17.9471 17.3995L16.989 16.4414C16.8162 16.3118 16.5711 16.3468 16.4415 16.5196C16.3372 16.6587 16.3372 16.8499 16.4415 16.9889L17.3996 17.947C17.5383 18.0982 17.7733 18.1083 17.9245 17.9696C17.9323 17.9624 17.9399 17.9548 17.947 17.947C18.0982 17.8083 18.1083 17.5733 17.9696 17.4221C17.9625 17.4142 17.9549 17.4067 17.9471 17.3995Z" fill="white"/>
<path d="M9.01095 9.55866C9.14965 9.70986 9.38468 9.71997 9.53585 9.58123C9.54371 9.57404 9.55123 9.56648 9.55842 9.55866C9.70962 9.41996 9.71972 9.18493 9.58098 9.03377C9.5738 9.02591 9.56624 9.01838 9.55842 9.0112L8.60031 8.0531C8.42752 7.92349 8.18242 7.95852 8.05281 8.13132C7.94854 8.27035 7.94854 8.46156 8.05281 8.6006L9.01095 9.55866Z" fill="white"/>
<path d="M12.9999 8.13129C13.2159 8.13129 13.391 7.95621 13.391 7.74023V6.39106C13.391 6.17508 13.2159 6 12.9999 6C12.784 6 12.6089 6.17508 12.6089 6.39106V7.74023C12.6089 7.95621 12.784 8.13129 12.9999 8.13129Z" fill="white"/>
<path d="M12.9999 17.8688C12.784 17.8688 12.6089 18.0439 12.6089 18.2598V19.609C12.6089 19.825 12.784 20.0001 12.9999 20.0001C13.2159 20.0001 13.391 19.825 13.391 19.609V18.2598C13.391 18.0439 13.2159 17.8688 12.9999 17.8688Z" fill="white"/>
<path d="M19.6089 12.609H18.2597C18.0437 12.609 17.8687 12.7841 17.8687 13.0001C17.8687 13.2161 18.0437 13.3911 18.2597 13.3911H19.6089C19.8249 13.3911 19.9999 13.2161 19.9999 13.0001C19.9999 12.7841 19.8248 12.609 19.6089 12.609Z" fill="white"/>
<path d="M8.13129 13.0001C8.13129 12.7841 7.95621 12.609 7.74023 12.609H6.39106C6.17508 12.609 6 12.7841 6 13.0001C6 13.2161 6.17508 13.3911 6.39106 13.3911H7.74023C7.95621 13.3911 8.13129 13.2161 8.13129 13.0001Z" fill="white"/>
</g>
</g>
<defs>
<clipPath id="clip0">
<rect width="48" height="26" fill="white"/>
</clipPath>
<clipPath id="clip1">
<rect width="14" height="14" fill="white" transform="translate(6 6)"/>
</clipPath>
</defs>
</svg>
